<?xml version="1.0" encoding="UTF-8" standalone="no"?>
<!-- Created with Inkscape (http://www.inkscape.org/) -->

<svg
   xmlns:dc="http://purl.org/dc/elements/1.1/"
   xmlns:cc="http://creativecommons.org/ns#"
   xmlns:rdf="http://www.w3.org/1999/02/22-rdf-syntax-ns#"
   xmlns:svg="http://www.w3.org/2000/svg"
   xmlns="http://www.w3.org/2000/svg"
   version="1.1"
   width="240.03741"
   height="174.0359"
   id="svg4540">
  <defs
     id="defs4542">
    <clipPath
       id="clipPath496">
      <path
         d="m 0,42.52 410,0 L 410,302 0,302 0,42.52 z"
         id="path498" />
    </clipPath>
    <clipPath
       id="clipPath506">
      <path
         d="m 0,0 2384,0 0,3370 L 0,3370 0,0 z"
         id="path508" />
    </clipPath>
  </defs>
  <metadata
     id="metadata4545">
    <rdf:RDF>
      <cc:Work
         rdf:about="">
        <dc:format>image/svg+xml</dc:format>
        <dc:type
           rdf:resource="http://purl.org/dc/dcmitype/StillImage" />
        <dc:title></dc:title>
      </cc:Work>
    </rdf:RDF>
  </metadata>
  <g
     transform="translate(-254.79854,-445.34343)"
     id="layer1">
    <g
       transform="matrix(0.729,0,0,-0.729,206.69919,656.93749)"
       id="g492">
      <g
         clip-path="url(#clipPath496)"
         id="g494">
        <g
           id="g500">
          <g
             id="g502">
            <g
               clip-path="url(#clipPath506)"
               id="g504">
              <g
                 id="g510">
                <g
                   transform="scale(0.229721,0.229721)"
                   id="g512">
                  <g
                     transform="translate(483.195,356.957)"
                     id="g514">
                    <path
                       d="M 0,0 1236.285,0"
                       id="path516"
                       style="fill:none;stroke:#000000;stroke-width:0.54400003;stroke-linecap:butt;stroke-linejoin:miter;stroke-miterlimit:10;stroke-opacity:1;stroke-dasharray:2.177, 4.353;stroke-dashoffset:0" />
                  </g>
                </g>
                <g
                   transform="scale(0.229721,0.229721)"
                   id="g518">
                  <g
                     transform="translate(483.195,356.957)"
                     id="g520">
                    <path
                       d="m 0,0 13.715,0 m 1222.57,0 -13.71,0"
                       id="path522"
                       style="fill:none;stroke:#000000;stroke-width:2.17700005;stroke-linecap:butt;stroke-linejoin:miter;stroke-miterlimit:10;stroke-opacity:1;stroke-dasharray:none" />
                  </g>
                </g>
                <text
                   transform="matrix(1,0,0,-1,99.4406,78.7001)"
                   id="text524">
                  <tspan
                     x="0"
                     y="0"
                     id="tspan526"
                     style="font-size:10px;font-variant:normal;font-weight:normal;writing-mode:lr-tb;fill:#000000;fill-opacity:1;fill-rule:nonzero;stroke:none;font-family:Helvetica;-inkscape-font-specification:Helvetica">0</tspan>
                </text>
                <g
                   transform="scale(0.229721,0.229721)"
                   id="g528">
                  <g
                     transform="translate(483.195,514.32)"
                     id="g530">
                    <path
                       d="M 0,0 1236.285,0"
                       id="path532"
                       style="fill:none;stroke:#000000;stroke-width:0.54400003;stroke-linecap:butt;stroke-linejoin:miter;stroke-miterlimit:10;stroke-opacity:1;stroke-dasharray:2.177, 4.353;stroke-dashoffset:0" />
                  </g>
                </g>
                <g
                   transform="scale(0.229721,0.229721)"
                   id="g534">
                  <g
                     transform="translate(483.195,514.32)"
                     id="g536">
                    <path
                       d="m 0,0 13.715,0 m 1222.57,0 -13.71,0"
                       id="path538"
                       style="fill:none;stroke:#000000;stroke-width:2.17700005;stroke-linecap:butt;stroke-linejoin:miter;stroke-miterlimit:10;stroke-opacity:1;stroke-dasharray:none" />
                  </g>
                </g>
                <text
                   transform="matrix(1,0,0,-1,93.8806,114.8504)"
                   id="text540">
                  <tspan
                     x="0 5.5599999"
                     y="0"
                     id="tspan542"
                     style="font-size:10px;font-variant:normal;font-weight:normal;writing-mode:lr-tb;fill:#000000;fill-opacity:1;fill-rule:nonzero;stroke:none;font-family:Helvetica;-inkscape-font-specification:Helvetica">20</tspan>
                </text>
                <g
                   transform="scale(0.229721,0.229721)"
                   id="g544">
                  <g
                     transform="translate(483.195,671.902)"
                     id="g546">
                    <path
                       d="M 0,0 1236.285,0"
                       id="path548"
                       style="fill:none;stroke:#000000;stroke-width:0.54400003;stroke-linecap:butt;stroke-linejoin:miter;stroke-miterlimit:10;stroke-opacity:1;stroke-dasharray:2.177, 4.353;stroke-dashoffset:0" />
                  </g>
                </g>
                <g
                   transform="scale(0.229721,0.229721)"
                   id="g550">
                  <g
                     transform="translate(483.195,671.902)"
                     id="g552">
                    <path
                       d="m 0,0 13.715,0 m 1222.57,0 -13.71,0"
                       id="path554"
                       style="fill:none;stroke:#000000;stroke-width:2.17700005;stroke-linecap:butt;stroke-linejoin:miter;stroke-miterlimit:10;stroke-opacity:1;stroke-dasharray:none" />
                  </g>
                </g>
                <text
                   transform="matrix(1,0,0,-1,93.8806,151.0505)"
                   id="text556">
                  <tspan
                     x="0 5.5599999"
                     y="0"
                     id="tspan558"
                     style="font-size:10px;font-variant:normal;font-weight:normal;writing-mode:lr-tb;fill:#000000;fill-opacity:1;fill-rule:nonzero;stroke:none;font-family:Helvetica;-inkscape-font-specification:Helvetica">40</tspan>
                </text>
                <g
                   transform="scale(0.229721,0.229721)"
                   id="g560">
                  <g
                     transform="translate(483.195,829.27)"
                     id="g562">
                    <path
                       d="M 0,0 1236.285,0"
                       id="path564"
                       style="fill:none;stroke:#000000;stroke-width:0.54400003;stroke-linecap:butt;stroke-linejoin:miter;stroke-miterlimit:10;stroke-opacity:1;stroke-dasharray:2.177, 4.353;stroke-dashoffset:0" />
                  </g>
                </g>
                <g
                   transform="scale(0.229721,0.229721)"
                   id="g566">
                  <g
                     transform="translate(483.195,829.27)"
                     id="g568">
                    <path
                       d="m 0,0 13.715,0 m 1222.57,0 -13.71,0"
                       id="path570"
                       style="fill:none;stroke:#000000;stroke-width:2.17700005;stroke-linecap:butt;stroke-linejoin:miter;stroke-miterlimit:10;stroke-opacity:1;stroke-dasharray:none" />
                  </g>
                </g>
                <text
                   transform="matrix(1,0,0,-1,93.8806,187.2006)"
                   id="text572">
                  <tspan
                     x="0 5.5599999"
                     y="0"
                     id="tspan574"
                     style="font-size:10px;font-variant:normal;font-weight:normal;writing-mode:lr-tb;fill:#000000;fill-opacity:1;fill-rule:nonzero;stroke:none;font-family:Helvetica;-inkscape-font-specification:Helvetica">60</tspan>
                </text>
                <g
                   transform="scale(0.229721,0.229721)"
                   id="g576">
                  <g
                     transform="translate(483.195,986.852)"
                     id="g578">
                    <path
                       d="M 0,0 1236.285,0"
                       id="path580"
                       style="fill:none;stroke:#000000;stroke-width:0.54400003;stroke-linecap:butt;stroke-linejoin:miter;stroke-miterlimit:10;stroke-opacity:1;stroke-dasharray:2.177, 4.353;stroke-dashoffset:0" />
                  </g>
                </g>
                <g
                   transform="scale(0.229721,0.229721)"
                   id="g582">
                  <g
                     transform="translate(483.195,986.852)"
                     id="g584">
                    <path
                       d="m 0,0 13.715,0 m 1222.57,0 -13.71,0"
                       id="path586"
                       style="fill:none;stroke:#000000;stroke-width:2.17700005;stroke-linecap:butt;stroke-linejoin:miter;stroke-miterlimit:10;stroke-opacity:1;stroke-dasharray:none" />
                  </g>
                </g>
                <text
                   transform="matrix(1,0,0,-1,93.8806,223.4007)"
                   id="text588">
                  <tspan
                     x="0 5.5599999"
                     y="0"
                     id="tspan590"
                     style="font-size:10px;font-variant:normal;font-weight:normal;writing-mode:lr-tb;fill:#000000;fill-opacity:1;fill-rule:nonzero;stroke:none;font-family:Helvetica;-inkscape-font-specification:Helvetica">80</tspan>
                </text>
                <g
                   transform="scale(0.229721,0.229721)"
                   id="g592">
                  <g
                     transform="translate(483.195,1144.21)"
                     id="g594">
                    <path
                       d="M 0,0 1236.285,0"
                       id="path596"
                       style="fill:none;stroke:#000000;stroke-width:0.54400003;stroke-linecap:butt;stroke-linejoin:miter;stroke-miterlimit:10;stroke-opacity:1;stroke-dasharray:2.177, 4.353;stroke-dashoffset:0" />
                  </g>
                </g>
                <g
                   transform="scale(0.229721,0.229721)"
                   id="g598">
                  <g
                     transform="translate(483.195,1144.21)"
                     id="g600">
                    <path
                       d="m 0,0 13.715,0 m 1222.57,0 -13.71,0"
                       id="path602"
                       style="fill:none;stroke:#000000;stroke-width:2.17700005;stroke-linecap:butt;stroke-linejoin:miter;stroke-miterlimit:10;stroke-opacity:1;stroke-dasharray:none" />
                  </g>
                </g>
                <text
                   transform="matrix(1,0,0,-1,88.3207,259.5508)"
                   id="text604">
                  <tspan
                     x="0 5.5599999 11.12"
                     y="0"
                     id="tspan606"
                     style="font-size:10px;font-variant:normal;font-weight:normal;writing-mode:lr-tb;fill:#000000;fill-opacity:1;fill-rule:nonzero;stroke:none;font-family:Helvetica;-inkscape-font-specification:Helvetica">100</tspan>
                </text>
                <g
                   transform="scale(0.229721,0.229721)"
                   id="g608">
                  <g
                     transform="translate(483.195,356.957)"
                     id="g610">
                    <path
                       d="m 0,0 0,6.746 m 0,898.697 0,-6.74"
                       id="path612"
                       style="fill:none;stroke:#000000;stroke-width:2.17700005;stroke-linecap:butt;stroke-linejoin:miter;stroke-miterlimit:10;stroke-opacity:1;stroke-dasharray:none" />
                  </g>
                </g>
                <g
                   transform="scale(0.229721,0.229721)"
                   id="g614">
                  <g
                     transform="translate(509.531,356.957)"
                     id="g616">
                    <path
                       d="M 0,0 0,905.443"
                       id="path618"
                       style="fill:none;stroke:#000000;stroke-width:0.54400003;stroke-linecap:butt;stroke-linejoin:miter;stroke-miterlimit:10;stroke-opacity:1;stroke-dasharray:2.177, 4.353;stroke-dashoffset:0" />
                  </g>
                </g>
                <g
                   transform="scale(0.229721,0.229721)"
                   id="g620">
                  <g
                     transform="translate(509.531,356.957)"
                     id="g622">
                    <path
                       d="m 0,0 0,13.711 m 0,891.732 0,-13.71"
                       id="path624"
                       style="fill:none;stroke:#000000;stroke-width:2.17700005;stroke-linecap:butt;stroke-linejoin:miter;stroke-miterlimit:10;stroke-opacity:1;stroke-dasharray:none" />
                  </g>
                </g>
                <text
                   transform="matrix(1,0,0,-1,112.8803,68.7001)"
                   id="text626">
                  <tspan
                     x="0 5.5599999"
                     y="0"
                     id="tspan628"
                     style="font-size:10px;font-variant:normal;font-weight:normal;writing-mode:lr-tb;fill:#000000;fill-opacity:1;fill-rule:nonzero;stroke:none;font-family:Helvetica;-inkscape-font-specification:Helvetica">10</tspan>
                </text>
                <g
                   transform="scale(0.229721,0.229721)"
                   id="g630">
                  <g
                     transform="translate(683.223,356.957)"
                     id="g632">
                    <path
                       d="m 0,0 0,6.746 m 0,898.697 0,-6.74 M 101.644,0 l 0,6.746 m 0,898.697 0,-6.74 M 173.687,0 l 0,6.746 m 0,898.697 0,-6.74 M 229.625,0 l 0,6.746 m 0,898.697 0,-6.74 M 275.332,0 l 0,6.746 m 0,898.697 0,-6.74 M 314.078,0 l 0,6.746 m 0,898.697 0,-6.74 M 347.377,0 l 0,6.746 m 0,898.697 0,-6.74 M 376.977,0 l 0,6.746 m 0,898.697 0,-6.74"
                       id="path634"
                       style="fill:none;stroke:#000000;stroke-width:2.17700005;stroke-linecap:butt;stroke-linejoin:miter;stroke-miterlimit:10;stroke-opacity:1;stroke-dasharray:none" />
                  </g>
                </g>
                <g
                   transform="scale(0.229721,0.229721)"
                   id="g636">
                  <g
                     transform="translate(1086.54,356.957)"
                     id="g638">
                    <path
                       d="M 0,0 0,905.443"
                       id="path640"
                       style="fill:none;stroke:#000000;stroke-width:0.54400003;stroke-linecap:butt;stroke-linejoin:miter;stroke-miterlimit:10;stroke-opacity:1;stroke-dasharray:2.177, 4.353;stroke-dashoffset:0" />
                  </g>
                </g>
                <g
                   transform="scale(0.229721,0.229721)"
                   id="g642">
                  <g
                     transform="translate(1086.54,356.957)"
                     id="g644">
                    <path
                       d="m 0,0 0,13.711 m 0,891.732 0,-13.71"
                       id="path646"
                       style="fill:none;stroke:#000000;stroke-width:2.17700005;stroke-linecap:butt;stroke-linejoin:miter;stroke-miterlimit:10;stroke-opacity:1;stroke-dasharray:none" />
                  </g>
                </g>
                <text
                   transform="matrix(1,0,0,-1,242.6507,68.7001)"
                   id="text648">
                  <tspan
                     x="0 5.5599999 11.12"
                     y="0"
                     id="tspan650"
                     style="font-size:10px;font-variant:normal;font-weight:normal;writing-mode:lr-tb;fill:#000000;fill-opacity:1;fill-rule:nonzero;stroke:none;font-family:Helvetica;-inkscape-font-specification:Helvetica">100</tspan>
                </text>
                <g
                   transform="scale(0.229721,0.229721)"
                   id="g652">
                  <g
                     transform="translate(1260.23,356.957)"
                     id="g654">
                    <path
                       d="m 0,0 0,6.746 m 0,898.697 0,-6.74 M 101.64,0 l 0,6.746 m 0,898.697 0,-6.74 M 173.69,0 l 0,6.746 m 0,898.697 0,-6.74 M 229.63,0 l 0,6.746 m 0,898.697 0,-6.74 M 275.33,0 l 0,6.746 m 0,898.697 0,-6.74 M 313.86,0 l 0,6.746 m 0,898.697 0,-6.74 M 347.38,0 l 0,6.746 m 0,898.697 0,-6.74 M 376.98,0 l 0,6.746 m 0,898.697 0,-6.74"
                       id="path656"
                       style="fill:none;stroke:#000000;stroke-width:2.17700005;stroke-linecap:butt;stroke-linejoin:miter;stroke-miterlimit:10;stroke-opacity:1;stroke-dasharray:none" />
                  </g>
                </g>
                <g
                   transform="scale(0.229721,0.229721)"
                   id="g658">
                  <g
                     transform="translate(1663.54,356.957)"
                     id="g660">
                    <path
                       d="m 0,0 0,804.673 m 0,87.06 0,13.71"
                       id="path662"
                       style="fill:none;stroke:#000000;stroke-width:0.54400003;stroke-linecap:butt;stroke-linejoin:miter;stroke-miterlimit:10;stroke-opacity:1;stroke-dasharray:2.177, 4.353;stroke-dashoffset:0" />
                  </g>
                </g>
                <g
                   transform="scale(0.229721,0.229721)"
                   id="g664">
                  <g
                     transform="translate(1663.54,356.957)"
                     id="g666">
                    <path
                       d="m 0,0 0,13.711 m 0,891.732 0,-13.71"
                       id="path668"
                       style="fill:none;stroke:#000000;stroke-width:2.17700005;stroke-linecap:butt;stroke-linejoin:miter;stroke-miterlimit:10;stroke-opacity:1;stroke-dasharray:none" />
                  </g>
                </g>
                <text
                   transform="matrix(1,0,0,-1,372.4211,68.7001)"
                   id="text670">
                  <tspan
                     x="0 5.5599999 11.12 16.68"
                     y="0"
                     id="tspan672"
                     style="font-size:10px;font-variant:normal;font-weight:normal;writing-mode:lr-tb;fill:#000000;fill-opacity:1;fill-rule:nonzero;stroke:none;font-family:Helvetica;-inkscape-font-specification:Helvetica">1000</tspan>
                </text>
                <g
                   transform="scale(0.229721,0.229721)"
                   id="g674">
                  <path
                     d="m 483.195,356.957 1236.29,0 0,905.445 -1236.29,0 0,-905.445 z"
                     id="path676"
                     style="fill:none;stroke:#000000;stroke-width:2.17700005;stroke-linecap:butt;stroke-linejoin:miter;stroke-miterlimit:10;stroke-opacity:1;stroke-dasharray:none" />
                </g>
                <text
                   transform="matrix(0,1,1,0,73.2999,101.2393)"
                   id="text678">
                  <tspan
                     x="0 6.6700001 12.23 15.56 20.559999 26.120001 31.68 34.459999 40.02 45.580002 51.139999 53.919998 59.48 62.259998 65.040001 71.709999 75.040001 80.599998 86.160004 91.720001 96.720001 99.5 101.72 107.28 112.84 115.62 122.29 127.85 133.41 135.63 137.85001 142.85001 148.41 151.19 153.41 158.97 164.53"
                     y="0"
                     id="tspan680"
                     style="font-size:10px;font-variant:normal;font-weight:normal;writing-mode:lr-tb;fill:#000000;fill-opacity:1;fill-rule:nonzero;stroke:none;font-family:Helvetica;-inkscape-font-specification:Helvetica">Percentage of Production Applications</tspan>
                </text>
                <text
                   transform="matrix(1,0,0,-1,204.0996,53.7001)"
                   id="text682">
                  <tspan
                     x="0 6.6700001 11.67 17.23 20.559999 26.120001 31.68 37.240002 40.02 45.580002 51.139999 53.919998 59.48 65.040001 70.040001 75.040001 77.82 81.150002 89.480003 94.480003"
                     y="0"
                     id="tspan684"
                     style="font-size:10px;font-variant:normal;font-weight:normal;writing-mode:lr-tb;fill:#000000;fill-opacity:1;fill-rule:nonzero;stroke:none;font-family:Helvetica;-inkscape-font-specification:Helvetica">Average Latency (ms)</tspan>
                  <tspan
                     x="116.853 124.073 129.633 135.19299 140.75301"
                     y="-224.85001"
                     id="tspan686"
                     style="font-size:10px;font-variant:normal;font-weight:normal;writing-mode:lr-tb;fill:#000000;fill-opacity:1;fill-rule:nonzero;stroke:none;font-family:Helvetica;-inkscape-font-specification:Helvetica">Reads</tspan>
                </text>
                <g
                   transform="scale(0.229721,0.229721)"
                   id="g688">
                  <g
                     transform="translate(1549.05,1226.9301)"
                     id="g690">
                    <path
                       d="m 0,0 118.19,0 m -1164.236,-861.27 15.887,8.707 45.273,8.926 4.789,8.707 1.086,8.703 2.18,8.707 20.242,8.707 16.758,8.922 19.152,8.707 0.871,8.707 26.555,8.707 42.226,8.707 14.582,8.922 26.336,8.707 1.524,8.707 11.754,8.703 12.187,8.707 37.875,8.707 5.223,8.926 11.754,8.703 14.801,8.707 2.828,8.707 14.582,8.707 2.613,8.922 1.742,8.707 36.781,8.707 4.79,8.707 6.312,8.703 0.434,8.926 8.054,8.707 5.223,8.707 3.047,8.703 3.918,8.707 6.965,8.926 9.359,8.703 9.797,8.707 1.523,8.707 0.871,8.707 1.957,8.922 5.442,8.707 18.5,8.707 0.219,8.707 1.089,8.707 22.635,8.922 1.53,8.707 8.27,8.707 0,8.703 4.35,8.707 15.67,8.708 4.35,8.925 2.39,8.703 10.02,8.707 1.09,8.707 3.48,8.708 10.01,8.921 2.18,8.707 0.43,8.707 3.27,8.707 6.09,8.704 5.23,8.925 17.63,8.707 10.45,8.707 13.93,8.704 18.06,8.707 1.74,8.925 0,8.704 22.2,8.707 3.92,8.707 38.74,8.707 0.87,8.922 1.53,8.707 8.49,8.707 3.7,8.707 1.08,8.711 18.72,8.7 52.24,8.92 48.1,8.71 1.31,8.7 17.63,8.71 12.18,8.71 52.24,8.92 8.49,8.71 5.01,8.7 5.44,8.71 23.72,8.71 0.22,8.92 0.22,8.71 45.27,8.7 157.58,8.71 2.18,8.7"
                       id="path692"
                       style="fill:none;stroke:#ff0000;stroke-width:6.53000021;stroke-linecap:butt;stroke-linejoin:miter;stroke-miterlimit:10;stroke-opacity:1;stroke-dasharray:none" />
                  </g>
                </g>
                <text
                   transform="matrix(1,0,0,-1,321.524,268.5508)"
                   id="text694">
                  <tspan
                     x="0 9.4399996 12.77 14.99 17.77 23.33"
                     y="0"
                     id="tspan696"
                     style="font-size:10px;font-variant:normal;font-weight:normal;writing-mode:lr-tb;fill:#000000;fill-opacity:1;fill-rule:nonzero;stroke:none;font-family:Helvetica;-inkscape-font-specification:Helvetica">Writes</tspan>
                </text>
                <g
                   transform="scale(0.229721,0.229721)"
                   id="g698">
                  <g
                     transform="translate(1549.05,1183.39)"
                     id="g700">
                    <path
                       d="m 0,0 118.19,0 m -1184.045,-773.98 2.176,0 110.57,8.707 72.696,8.922 119.929,8.707 12.625,8.707 98.164,8.707 14.801,8.707 95.334,8.922 66.17,8.707 57.46,8.707 20.89,8.707 5.22,8.703 10.67,8.707 54.63,8.926 5.01,8.703 10.23,8.707 4.78,8.707 18.29,8.707 28.73,8.922 1.96,8.707 9.36,8.707 7.61,8.707 6.75,8.703 16.54,8.926 3.49,8.707 5.44,8.707 3.26,8.703 4.57,8.707 5.88,8.926 9.14,8.703 1.31,8.707 15.02,8.707 0.43,8.707 1.74,8.922 0.44,8.707 0.87,8.707 3.7,8.707 1.74,8.707 9.58,8.922 1.3,8.707 7.41,8.707 25.89,8.703 16.77,8.707 6.96,8.708 0.87,8.925 4.79,8.703 4.35,8.707 9.14,8.707 3.05,8.708 0.44,8.921 3.04,8.707 10.89,8.707 11.31,8.707 3.49,8.704 12.62,8.925 11.32,8.707 2.17,8.707 6.32,8.704 7.4,8.707 5.22,8.925 1.31,8.704 7.83,8.707 2.4,8.707 6.09,8.707 2.83,8.922 2.18,8.707 26.99,8.707 0.65,8.707 1.3,8.711 3.49,8.7 0.43,8.92 4.79,8.71 1.96,8.7 1.09,8.71 2.39,8.71 13.06,8.92 0.87,8.71 10.89,8.7 0.43,8.71 10.67,8.71 1.08,8.92 27.21,8.71 4.57,8.7 19.81,8.71 10.01,4.13"
                       id="path702"
                       style="fill:none;stroke:#00ff00;stroke-width:6.53000021;stroke-linecap:butt;stroke-linejoin:miter;stroke-miterlimit:10;stroke-opacity:1;stroke-dasharray:8.706, 4.353;stroke-dashoffset:0" />
                  </g>
                </g>
                <g
                   transform="scale(0.229721,0.229721)"
                   id="g704">
                  <path
                     d="m 483.195,356.957 1236.29,0 0,905.445 -1236.29,0 0,-905.445 z"
                     id="path706"
                     style="fill:none;stroke:#000000;stroke-width:2.17700005;stroke-linecap:butt;stroke-linejoin:miter;stroke-miterlimit:10;stroke-opacity:1;stroke-dasharray:none" />
                </g>
              </g>
            </g>
          </g>
        </g>
      </g>
    </g>
  </g>
</svg>
